<svg xmlns="http://www.w3.org/2000/svg" viewBox="0 0 21.6 28.8"><defs><style>.a{fill:#009640;stroke:#fff;stroke-miterlimit:10;stroke-width:2.15px;}.b{fill:#e30613;}.c{fill:#ea5346;}.d{fill:#ba1d1c;}.e{fill:#fff;}</style></defs><path class="a" d="M18.6,10.5c0,4.3-7.8,15.6-7.8,15.6S3,14.8,3,10.5a7.8,7.8,0,0,1,15.6,0Z"/><path class="b" d="M18.6,10.5c0,4.3-7.8,15.6-7.8,15.6S3,14.8,3,10.5a7.8,7.8,0,0,1,15.6,0Z"/><path class="c" d="M4,10.8A6.8,6.8,0,0,1,16.1,6.7,6.8,6.8,0,1,0,4.9,14.2,6.7,6.7,0,0,1,4,10.8Z"/><path class="d" d="M9,23.1c1,1.8,1.8,3,1.8,3s7.8-11.3,7.8-15.6a1.7,1.7,0,0,0-.1-.7,20.6,20.6,0,0,1-1.2,3.5c-1.5,3-3.7,5-6,7.5A25,25,0,0,1,9,23.1Z"/><circle class="e" cx="10.8" cy="10.6" r="6.2"/><path class="b" d="M14.7,7.5v.3H6.9V7.5A.5.5,0,0,1,7.4,7H9.2V6.7c0-.2.2-.3.4-.3h2.2c.2,0,.4.1.4.3V7h1.8A.5.5,0,0,1,14.7,7.5Z"/><path class="b" d="M7.3,8.3l.5,6.2a.6.6,0,0,0,.6.5h4.8a.6.6,0,0,0,.6-.5l.5-6.2Zm2.1,5.9H9.1v-.3L8.7,9.6a.4.4,0,0,1,.1-.3c0-.1.1-.1.2-.1s.4.1.4.3l.4,4.3A.4.4,0,0,1,9.4,14.2Zm1.8-.4a.4.4,0,1,1-.8,0V9.5c0-.2.2-.3.4-.3s.4.1.4.3Zm1.7-4.2-.3,4.2a.4.4,0,0,1-.4.4h0l-.3-.2c-.1,0-.1-.1-.1-.2l.4-4.3c0-.1,0-.2.1-.2h.3c.1,0,.2,0,.2.1a.4.4,0,0,1,.1.3Z"/></svg>