<svg xmlns="http://www.w3.org/2000/svg" viewBox="0 0 21.6 28.8"><defs><style>.a{fill:#009640;stroke:#fff;stroke-miterlimit:10;stroke-width:2.15px;}.b{fill:#312783;}.c{fill:#0055a2;}.d{fill:#2d2a5b;}.e{fill:#fff;}</style></defs><path class="a" d="M19.2,10.5c0,4.3-7.8,15.6-7.8,15.6S3.6,14.8,3.6,10.5a7.8,7.8,0,0,1,15.6,0Z"/><path class="b" d="M19.2,10.5c0,4.3-7.8,15.6-7.8,15.6S3.6,14.8,3.6,10.5a7.8,7.8,0,0,1,15.6,0Z"/><path class="c" d="M4.6,10.8A6.8,6.8,0,0,1,16.7,6.7,6.8,6.8,0,1,0,5.5,14.2,6.7,6.7,0,0,1,4.6,10.8Z"/><path class="d" d="M9.6,23.1c1,1.8,1.8,3,1.8,3s7.8-11.3,7.8-15.6a1.7,1.7,0,0,0-.1-.7,20.6,20.6,0,0,1-1.2,3.5c-1.5,3-3.7,5-6,7.5A25,25,0,0,1,9.6,23.1Z"/><circle class="e" cx="11.4" cy="10.6" r="6.2"/><path class="b" d="M15.2,7.5v.3a.1.1,0,0,1-.1.1H7.7a.1.1,0,0,1-.1-.1V7.5a.5.5,0,0,1,.5-.4H9.9V6.8a.5.5,0,0,1,.5-.3h2a.5.5,0,0,1,.5.3v.3h1.7A.5.5,0,0,1,15.2,7.5Z"/><path class="b" d="M8,8.4l.5,6.1a.6.6,0,0,0,.6.5h4.7a.5.5,0,0,0,.5-.5l.5-6.1Zm2.1,5.7H9.8v-.2L9.3,9.6V9.3h.3c.2,0,.4.1.4.3l.3,4.2C10.4,13.9,10.3,14.1,10.1,14.1Zm1.7-.4a.4.4,0,0,1-.8,0V9.6a.4.4,0,0,1,.8,0Zm1.7-4.1-.3,4.2c-.1.2-.2.3-.4.3h-.3a.4.4,0,0,1-.1-.3l.3-4.2.2-.2c0-.1.1-.1.2-.1h.3a.4.4,0,0,1,.1.3Z"/></svg>