<svg xmlns="http://www.w3.org/2000/svg" viewBox="0 0 21.6 28.8"><defs><style>.a{fill:#009640;stroke:#fff;stroke-miterlimit:10;stroke-width:2.15px;}.b{fill:#971b81;}.c{fill:#602367;}.d{fill:#831f82;}.e{fill:#fff;}.f{fill:#7e2082;}</style></defs><path class="a" d="M19,10.5c0,4.3-7.7,15.6-7.7,15.6S3.5,14.8,3.5,10.5a7.8,7.8,0,1,1,15.5,0Z"/><path class="b" d="M19,10.5c0,4.3-7.7,15.6-7.7,15.6S3.5,14.8,3.5,10.5a7.8,7.8,0,1,1,15.5,0Z"/><path class="c" d="M4.5,10.8a6.7,6.7,0,0,1,6.7-6.7,6.9,6.9,0,0,1,5.4,2.6,6.9,6.9,0,0,0-5.9-3.4A6.8,6.8,0,0,0,5.4,14.2,6.7,6.7,0,0,1,4.5,10.8Z"/><path class="d" d="M9.4,23.1l1.9,3S19,14.8,19,10.5V9.8a20.9,20.9,0,0,1-1.3,3.5c-1.5,3-3.6,5-5.9,7.5Z"/><circle class="e" cx="11.3" cy="10.6" r="6.2"/><path class="f" d="M15.1,7.5v.3a.1.1,0,0,1-.1.1H7.5a.1.1,0,0,1-.1-.1V7.5A.5.5,0,0,1,7.9,7H9.7V6.7a.5.5,0,0,1,.5-.3h2.1a.5.5,0,0,1,.5.3V7h1.8A.5.5,0,0,1,15.1,7.5Z"/><path class="f" d="M7.8,8.3l.5,6.2a.5.5,0,0,0,.5.5h4.9a.5.5,0,0,0,.5-.5l.5-6.2Zm2.1,5.9H9.6a.4.4,0,0,1-.1-.3L9.1,9.6a.4.4,0,0,1,.1-.3h.3c.2,0,.4.1.4.3l.3,4.3C10.2,14,10.1,14.2,9.9,14.2Zm1.7-.4c0,.2-.1.4-.3.4a.4.4,0,0,1-.4-.4V9.5c0-.2.1-.3.4-.3a.3.3,0,0,1,.3.3Zm1.8-4.2L13,13.8c0,.2-.1.4-.3.4h-.1l-.2-.2c-.1,0-.1-.1-.1-.2l.3-4.3V9.3h.6a.4.4,0,0,1,.1.3Z"/></svg>