<svg xmlns="http://www.w3.org/2000/svg" viewBox="0 0 21.6 28.8"><defs><style>.a,.b{fill:#009640;}.a{stroke:#fff;stroke-miterlimit:10;stroke-width:2.15px;}.c{fill:#52ae32;}.d{fill:#008a3f;}.e{fill:#fff;}</style></defs><path class="a" d="M18.5,10.5c0,4.3-7.7,15.6-7.7,15.6S3,14.8,3,10.5a7.8,7.8,0,0,1,7.8-7.8A7.7,7.7,0,0,1,18.5,10.5Z"/><path class="b" d="M18.5,10.5c0,4.3-7.7,15.6-7.7,15.6S3,14.8,3,10.5a7.8,7.8,0,0,1,7.8-7.8A7.7,7.7,0,0,1,18.5,10.5Z"/><path class="c" d="M4,10.8a6.7,6.7,0,0,1,6.7-6.7,6.9,6.9,0,0,1,5.4,2.6,6.9,6.9,0,0,0-5.9-3.4A6.8,6.8,0,0,0,4.9,14.2,6.7,6.7,0,0,1,4,10.8Z"/><path class="d" d="M8.9,23.1l1.9,3s7.7-11.3,7.7-15.6V9.8a14.8,14.8,0,0,1-1.3,3.5c-1.4,3-3.6,5-5.9,7.5Z"/><circle class="e" cx="10.8" cy="10.6" r="6.2"/><path class="b" d="M14.6,7.5v.3a.1.1,0,0,1-.1.1H6.9V7.5A.5.5,0,0,1,7.4,7H9.2V6.7c0-.2.2-.3.4-.3h2.1a.5.5,0,0,1,.5.3V7h1.8A.5.5,0,0,1,14.6,7.5Z"/><path class="b" d="M7.3,8.3l.5,6.2a.6.6,0,0,0,.6.5h4.8a.5.5,0,0,0,.5-.5l.6-6.2Zm2.1,5.9H9.1a.4.4,0,0,1-.1-.3L8.6,9.6V9.3H9c.2,0,.4.1.4.3l.3,4.3C9.7,14,9.6,14.2,9.4,14.2Zm1.8-.4a.4.4,0,1,1-.8,0V9.5c0-.2.2-.3.4-.3s.4.1.4.3Zm1.7-4.2-.3,4.2c-.1.2-.2.4-.4.4h0c-.2,0-.3-.1-.3-.2s-.1-.1-.1-.2l.3-4.3a.2.2,0,0,1,.2-.2c0-.1.1-.1.2-.1h.3a.4.4,0,0,1,.1.3Z"/></svg>