<svg id="Layer_1" data-name="Layer 1" xmlns="http://www.w3.org/2000/svg" viewBox="0 0 28.8 28.8"><defs><style>.cls-1{fill:#2b3d66;}.cls-2{fill:#f6c55f;}.cls-3{fill:#ecbe5d;}.cls-4{fill:#f4ba42;}.cls-5{fill:#fff;}.cls-6{fill:#52c3ef;}.cls-7{fill:#6bbc8c;}.cls-8{fill:#60b482;}.cls-9{fill:#e3ae3e;}</style></defs><path class="cls-1" d="M14.4,27.4H5.7a2.5,2.5,0,0,1-2.5-2L.5,13.8A2.4,2.4,0,0,1,2,10.9c.2,0,.2-.2.2-.3V4.5A2.2,2.2,0,0,1,3.9,2.3H9.2a3.8,3.8,0,0,1,2.3.8l1.3,1.2a2.2,2.2,0,0,0,1.4.5H24.3a2.2,2.2,0,0,1,2.2,1.7,1.7,1.7,0,0,1,.1.7v3.5c0,.2,0,.3.2.3a2.3,2.3,0,0,1,1.5,2.8L25.6,25.5a2.4,2.4,0,0,1-2.4,1.9Z"/><path class="cls-2" d="M4.2,24.7c-.3-1.1-.5-2.3-.8-3.5L1.6,13.5A1.1,1.1,0,0,1,2.7,12H25.4c.2,0,.2.1.2.3s-.3.9-.4,1.4A18.5,18.5,0,0,1,20.9,20h0c-.1.1-.2.3-.3.2s-.1-.2-.1-.4V13.9a.9.9,0,0,0-.1-.5c-.1-.2-.2-.3-.4-.3H9c-.3,0-.5,0-.6.4a.6.6,0,0,0-.1.4V24.3c0,.5,0,.5-.5.5H4.7C4.5,24.8,4.3,24.9,4.2,24.7Z"/><path class="cls-3" d="M20.5,13.4c.1.1,0,.3,0,.4v6.4L21.8,19l1.5-1.9a21.6,21.6,0,0,0,2.2-4.9c.1-.2,0-.2-.1-.2h.5l.9.2a1.2,1.2,0,0,1,.4,1.4c-.8,3.7-1.7,7.4-2.6,11.1,0,.3-.1.5-.1.7a1.4,1.4,0,0,1-1.2,1H5.8c-1,0-1.3-.3-1.5-1.3s-.1-.2-.1-.3H7.9c.3,0,.4-.1.4-.4V13.8c0-.1-.1-.3,0-.4a1.3,1.3,0,0,1,.1.6V24.5c0,.4.1.6.5.6H19.5c.8,0,.9,0,.9-.8V14A1.3,1.3,0,0,1,20.5,13.4Z"/><path class="cls-4" d="M14.4,7.2H6.1A1.3,1.3,0,0,0,4.6,8.7v1.9c0,.2,0,.2-.2.2H3.6c-.2,0-.3,0-.3-.2v-6c0-.8.4-1.2,1.3-1.2H9.4a1.6,1.6,0,0,1,1.1.5A8.1,8.1,0,0,1,11.9,5a3.6,3.6,0,0,0,2.5.8h9.8a1.2,1.2,0,0,1,1.3,1.3v3.5c0,.2-.1.2-.3.2h-.8c-.2,0-.2,0-.2-.2v-2a1.3,1.3,0,0,0-1.4-1.4Z"/><path class="cls-5" d="M14.4,10.8H6c-.2,0-.3,0-.3-.3V8.8c0-.5,0-.5.5-.5H22.6c.5,0,.5,0,.5.5v1.7c0,.3-.1.3-.3.3Z"/><path class="cls-1" d="M20.5,13.4V24.6c0,.4-.1.6-.6.6H8.9c-.5,0-.6-.2-.6-.6V13.4a.5.5,0,0,1,.5-.4H20A.5.5,0,0,1,20.5,13.4Z"/><path class="cls-6" d="M9.2,21c-.1,0,0-.1,0-.2,0-2.2,0-4.4-.1-6.6,0-.3.1-.3.3-.3h9.9c.3,0,.4,0,.4.2-.1,1.7-.1,3.4-.1,5v.3l-.2-.2-1.5-1.5a1.2,1.2,0,0,0-1.7,0L13.8,20c-.2.3-.3.3-.6,0l-.6-.6a1.2,1.2,0,0,0-1.7,0L9.4,20.9Z"/><path class="cls-7" d="M9.2,23.3V22.2L11.4,20c.3-.2.4-.2.6,0l.7.7a1.2,1.2,0,0,0,1.7,0l2.3-2.4c.3-.2.4-.2.6,0l1.4,1.4a1.4,1.4,0,0,1,0,.9,3.2,3.2,0,0,1-3.2,2.8H9.2Z"/><path class="cls-8" d="M9.2,23.3h6.5a2.9,2.9,0,0,0,1.8-.7,3.6,3.6,0,0,0,1.2-2.9l.9.8v3.6c0,.2,0,.2-.2.2H9.4c-.2,0-.3,0-.2-.2Z"/><path class="cls-1" d="M13.2,18.5a2,2,0,1,1,2-2A2,2,0,0,1,13.2,18.5Z"/><path class="cls-4" d="M12.6,17.5a1.1,1.1,0,0,1-.5-1.2,1.3,1.3,0,0,1,1-1,1.4,1.4,0,0,1,1.1.6.9.9,0,0,1-.3,1.1A1.1,1.1,0,0,1,12.6,17.5Z"/><path class="cls-9" d="M12.6,17.5a1.5,1.5,0,0,0,1.6-1.6,1.1,1.1,0,0,1-.2,1.4A1.1,1.1,0,0,1,12.6,17.5Z"/></svg>